# xmcd CD database file
#
# Track frame offsets:
#	150
#	12837
#	24690
#	36087
#	48055
#	61382
#	73170
#	85870
#	95845
#	107785
#	122015
#	132982
#	143390
#	152990
#	162470
#	174640
#	183747
#	196040
#	205787
#	214550
#	221792
#	230345
#	239370
#	249245
#	256372
#	265880
#	277337
#	290237
#	303590
#	311905
#	321872
#	330337
#
# Disc length: 4550 seconds
#
# Revision: 0
# Processed by: cddbd v1.5.1PL0 Copyright (c) Steve Scherf et al.
# Submitted via: CDex 1.51
#
DISCID=e511c420
DTITLE=Les Paul - Isle of Golden Dreams, #3
DYEAR=1900
DGENRE=Jazz
TTITLE0=Lover
TTITLE1=Brazil
TTITLE2=Hip-Billy Boogie
TTITLE3=What Is This Thing Called Love
TTITLE4=Caravana
TTITLE5=Nola
TTITLE6=Cryin'
TTITLE7=Dry Me Tears
TTITLE8=Goofus
TTITLE9=Tennessee Waltz
TTITLE10=LitTLERock Getaway
TTITLE11=Mocking Bird Hill
TTITLE12=Chicken Reel
TTITLE13=How High The Moon
TTITLE14=Walkin' And Whistlin' Blues
TTITLE15=Josephine
TTITLE16=I Wish I'd Never Seen Sunshine
TTITLE17=In The Good Old Summertime
TTITLE18=Three LitTLEWords
TTITLE19=Jazz Me Blues
TTITLE20=Just One More Chance
TTITLE21=Whispering
TTITLE22=World Is Waiting for the Sunrise, the
TTITLE23=Jingle Bells
TTITLE24=Tiger Rag
TTITLE25=Carioca, The
TTITLE26=I'm Confessin' (That I Love You)
TTITLE27=Smoke Rings
TTITLE28=Meet Mister Callaghan
TTITLE29=Take Me In Your Arms And Hold Me
TTITLE30=Lady Of Spain
TTITLE31=My Baby's Coming Home
EXTD=
EXTT0=
EXTT1=
EXTT2=
EXTT3=
EXTT4=
EXTT5=
EXTT6=
EXTT7=
EXTT8=
EXTT9=
EXTT10=
EXTT11=
EXTT12=
EXTT13=
EXTT14=
EXTT15=
EXTT16=
EXTT17=
EXTT18=
EXTT19=
EXTT20=
EXTT21=
EXTT22=
EXTT23=
EXTT24=
EXTT25=
EXTT26=
EXTT27=
EXTT28=
EXTT29=
EXTT30=
EXTT31=
PLAYORDER=
